<svg version="1.1" xmlns="http://www.w3.org/2000/svg" xmlns:xlink="http://www.w3.org/1999/xlink" width="1366" height="644"><defs><clipPath id="cGBqKupiMMEh"><path fill="none" stroke="none" d=" M 0 0 L 1366 0 L 1366 644 L 0 644 L 0 0 Z"/></clipPath></defs><g transform="scale(1,1)" clip-path="url(#cGBqKupiMMEh)"><g><rect fill="rgb(255,255,255)" stroke="none" x="0" y="0" width="1366" height="644" fill-opacity="1"/><path fill="rgb(255,51,102)" stroke="none" paint-order="stroke fill markers" fill-rule="evenodd" d=" M 91.01330741499486 340.5815096485884 L 476.63682759567 340.5815096485884 L 476.63682759567 237.74857093374044 L 91.01330741499486 237.74857093374044 Z" fill-opacity="1"/><path fill="rgb(0,153,204)" stroke="none" paint-order="stroke fill markers" fill-rule="evenodd" d=" M 91.01330741499486 340.5815096485884 L 433.78976979781726 340.5815096485884 L 433.78976979781726 443.41444836343635 L 91.01330741499486 443.41444836343635 Z" fill-opacity="1"/><path fill="rgb(255,51,102)" stroke="none" paint-order="stroke fill markers" fill-rule="evenodd" d=" M 810.8438784189218 340.5815096485884 L 1196.467398599597 340.5815096485884 L 1196.467398599597 237.74857093374044 L 810.8438784189218 237.74857093374044 Z" fill-opacity="1"/><path fill="rgb(0,153,204)" stroke="none" paint-order="stroke fill markers" fill-rule="evenodd" d=" M 810.8438784189218 340.5815096485884 L 1153.6203408017443 340.5815096485884 L 1153.6203408017443 443.41444836343635 L 810.8438784189218 443.41444836343635 Z" fill-opacity="1"/><path fill="none" stroke="rgb(0,0,0)" paint-order="fill stroke markers" d=" M 91.01330741499486 340.5815096485884 L 476.63682759567 340.5815096485884" stroke-opacity="1" stroke-linecap="round" stroke-linejoin="round" stroke-miterlimit="10" stroke-width="4"/><path fill="none" stroke="rgb(0,51,0)" paint-order="fill stroke markers" d=" M 476.63682759567 340.5815096485884 L 476.63682759567 237.74857093374044" stroke-opacity="1" stroke-linecap="round" stroke-linejoin="round" stroke-miterlimit="10" stroke-width="4"/><path fill="none" stroke="rgb(0,0,0)" paint-order="fill stroke markers" d=" M 476.63682759567 237.74857093374044 L 91.01330741499486 237.74857093374044" stroke-opacity="1" stroke-linecap="round" stroke-linejoin="round" stroke-miterlimit="10" stroke-width="4"/><path fill="none" stroke="rgb(0,0,0)" paint-order="fill stroke markers" d=" M 91.01330741499486 237.74857093374044 L 91.01330741499486 340.5815096485884" stroke-opacity="1" stroke-linecap="round" stroke-linejoin="round" stroke-miterlimit="10" stroke-width="4"/><path fill="none" stroke="rgb(255,51,102)" paint-order="fill stroke markers" d=" M 363.5 103.5 L 563.5 103.5" stroke-opacity="0.39215686274509803" stroke-linecap="round" stroke-linejoin="round" stroke-miterlimit="10" stroke-width="5"/><path fill="rgb(255,51,102)" stroke="none" paint-order="stroke fill markers" d=" M 438.6666666666667 103.50000000000003 C 438.6666666666667 108.19442037356177 434.8610870402284 112.00000000000003 430.1666666666667 112.00000000000003 C 425.47224629310494 112.00000000000003 421.6666666666667 108.19442037356177 421.6666666666667 103.50000000000003 C 421.6666666666667 98.80557962643829 425.47224629310494 95.00000000000003 430.1666666666667 95.00000000000003 C 434.8610870402284 95.00000000000003 438.6666666666667 98.80557962643829 438.6666666666667 103.50000000000003 Z" fill-opacity="0.39215686274509803"/><path fill="none" stroke="rgb(255,51,102)" paint-order="fill stroke markers" d=" M 438.6666666666667 103.50000000000003 C 438.6666666666667 108.19442037356177 434.8610870402284 112.00000000000003 430.1666666666667 112.00000000000003 C 425.47224629310494 112.00000000000003 421.6666666666667 108.19442037356177 421.6666666666667 103.50000000000003 C 421.6666666666667 98.80557962643829 425.47224629310494 95.00000000000003 430.1666666666667 95.00000000000003 C 434.8610870402284 95.00000000000003 438.6666666666667 98.80557962643829 438.6666666666667 103.50000000000003 Z" stroke-opacity="0.39215686274509803" stroke-linecap="round" stroke-linejoin="round" stroke-miterlimit="10"/><path fill="rgb(255,51,102)" stroke="none" paint-order="stroke fill markers" d=" M 435.6666666666667 103.50000000000003 C 435.6666666666667 106.53756612406939 433.20423279073606 109.00000000000003 430.1666666666667 109.00000000000003 C 427.1291005425973 109.00000000000003 424.6666666666667 106.53756612406939 424.6666666666667 103.50000000000003 C 424.6666666666667 100.46243387593067 427.1291005425973 98.00000000000003 430.1666666666667 98.00000000000003 C 433.20423279073606 98.00000000000003 435.6666666666667 100.46243387593067 435.6666666666667 103.50000000000003 Z" fill-opacity="1"/><path fill="none" stroke="rgb(0,0,0)" paint-order="fill stroke markers" d=" M 435.6666666666667 103.50000000000003 C 435.6666666666667 106.53756612406939 433.20423279073606 109.00000000000003 430.1666666666667 109.00000000000003 C 427.1291005425973 109.00000000000003 424.6666666666667 106.53756612406939 424.6666666666667 103.50000000000003 C 424.6666666666667 100.46243387593067 427.1291005425973 98.00000000000003 430.1666666666667 98.00000000000003 C 433.20423279073606 98.00000000000003 435.6666666666667 100.46243387593067 435.6666666666667 103.50000000000003 Z" stroke-opacity="1" stroke-linecap="round" stroke-linejoin="round" stroke-miterlimit="10"/><path fill="none" stroke="rgb(255,51,102)" paint-order="fill stroke markers" d=" M 364.5 58.5 L 564.5 58.5" stroke-opacity="0.39215686274509803" stroke-linecap="round" stroke-linejoin="round" stroke-miterlimit="10" stroke-width="5"/><path fill="rgb(255,51,102)" stroke="none" paint-order="stroke fill markers" d=" M 523 58.5 C 523 63.19442037356174 519.1944203735618 67 514.5 67 C 509.80557962643826 67 506 63.19442037356174 506 58.5 C 506 53.80557962643826 509.80557962643826 50 514.5 50 C 519.1944203735618 50 523 53.80557962643826 523 58.5 Z" fill-opacity="0.39215686274509803"/><path fill="none" stroke="rgb(255,51,102)" paint-order="fill stroke markers" d=" M 523 58.5 C 523 63.19442037356174 519.1944203735618 67 514.5 67 C 509.80557962643826 67 506 63.19442037356174 506 58.5 C 506 53.80557962643826 509.80557962643826 50 514.5 50 C 519.1944203735618 50 523 53.80557962643826 523 58.5 Z" stroke-opacity="0.39215686274509803" stroke-linecap="round" stroke-linejoin="round" stroke-miterlimit="10"/><path fill="rgb(255,51,102)" stroke="none" paint-order="stroke fill markers" d=" M 520 58.5 C 520 61.537566124069365 517.5375661240694 64 514.5 64 C 511.4624338759306 64 509 61.537566124069365 509 58.5 C 509 55.462433875930635 511.4624338759306 53 514.5 53 C 517.5375661240694 53 520 55.462433875930635 520 58.5 Z" fill-opacity="1"/><path fill="none" stroke="rgb(0,0,0)" paint-order="fill stroke markers" d=" M 520 58.5 C 520 61.537566124069365 517.5375661240694 64 514.5 64 C 511.4624338759306 64 509 61.537566124069365 509 58.5 C 509 55.462433875930635 511.4624338759306 53 514.5 53 C 517.5375661240694 53 520 55.462433875930635 520 58.5 Z" stroke-opacity="1" stroke-linecap="round" stroke-linejoin="round" stroke-miterlimit="10"/><path fill="none" stroke="rgb(0,153,204)" paint-order="fill stroke markers" d=" M 831.5 103.5 L 1031.5 103.5" stroke-opacity="0.39215686274509803" stroke-linecap="round" stroke-linejoin="round" stroke-miterlimit="10" stroke-width="5"/><path fill="rgb(0,153,204)" stroke="none" paint-order="stroke fill markers" d=" M 884.4444444444445 103.50000000000003 C 884.4444444444445 108.19442037356177 880.6388648180063 112.00000000000003 875.9444444444445 112.00000000000003 C 871.2500240708827 112.00000000000003 867.4444444444445 108.19442037356177 867.4444444444445 103.50000000000003 C 867.4444444444445 98.80557962643829 871.2500240708827 95.00000000000003 875.9444444444445 95.00000000000003 C 880.6388648180063 95.00000000000003 884.4444444444445 98.80557962643829 884.4444444444445 103.50000000000003 Z" fill-opacity="0.39215686274509803"/><path fill="none" stroke="rgb(0,153,204)" paint-order="fill stroke markers" d=" M 884.4444444444445 103.50000000000003 C 884.4444444444445 108.19442037356177 880.6388648180063 112.00000000000003 875.9444444444445 112.00000000000003 C 871.2500240708827 112.00000000000003 867.4444444444445 108.19442037356177 867.4444444444445 103.50000000000003 C 867.4444444444445 98.80557962643829 871.2500240708827 95.00000000000003 875.9444444444445 95.00000000000003 C 880.6388648180063 95.00000000000003 884.4444444444445 98.80557962643829 884.4444444444445 103.50000000000003 Z" stroke-opacity="0.39215686274509803" stroke-linecap="round" stroke-linejoin="round" stroke-miterlimit="10"/><path fill="rgb(0,153,204)" stroke="none" paint-order="stroke fill markers" d=" M 881.4444444444445 103.50000000000003 C 881.4444444444445 106.53756612406939 878.9820105685138 109.00000000000003 875.9444444444445 109.00000000000003 C 872.9068783203751 109.00000000000003 870.4444444444445 106.53756612406939 870.4444444444445 103.50000000000003 C 870.4444444444445 100.46243387593067 872.9068783203751 98.00000000000003 875.9444444444445 98.00000000000003 C 878.9820105685138 98.00000000000003 881.4444444444445 100.46243387593067 881.4444444444445 103.50000000000003 Z" fill-opacity="1"/><path fill="none" stroke="rgb(0,0,0)" paint-order="fill stroke markers" d=" M 881.4444444444445 103.50000000000003 C 881.4444444444445 106.53756612406939 878.9820105685138 109.00000000000003 875.9444444444445 109.00000000000003 C 872.9068783203751 109.00000000000003 870.4444444444445 106.53756612406939 870.4444444444445 103.50000000000003 C 870.4444444444445 100.46243387593067 872.9068783203751 98.00000000000003 875.9444444444445 98.00000000000003 C 878.9820105685138 98.00000000000003 881.4444444444445 100.46243387593067 881.4444444444445 103.50000000000003 Z" stroke-opacity="1" stroke-linecap="round" stroke-linejoin="round" stroke-miterlimit="10"/><path fill="none" stroke="rgb(0,153,204)" paint-order="fill stroke markers" d=" M 833.5 58.5 L 1033.5 58.5" stroke-opacity="0.39215686274509803" stroke-linecap="round" stroke-linejoin="round" stroke-miterlimit="10" stroke-width="5"/><path fill="rgb(0,153,204)" stroke="none" paint-order="stroke fill markers" d=" M 975.3333333333334 58.5 C 975.3333333333334 63.19442037356174 971.5277537068952 67 966.8333333333334 67 C 962.1389129597716 67 958.3333333333334 63.19442037356174 958.3333333333334 58.5 C 958.3333333333334 53.80557962643826 962.1389129597716 50 966.8333333333334 50 C 971.5277537068952 50 975.3333333333334 53.80557962643826 975.3333333333334 58.5 Z" fill-opacity="0.39215686274509803"/><path fill="none" stroke="rgb(0,153,204)" paint-order="fill stroke markers" d=" M 975.3333333333334 58.5 C 975.3333333333334 63.19442037356174 971.5277537068952 67 966.8333333333334 67 C 962.1389129597716 67 958.3333333333334 63.19442037356174 958.3333333333334 58.5 C 958.3333333333334 53.80557962643826 962.1389129597716 50 966.8333333333334 50 C 971.5277537068952 50 975.3333333333334 53.80557962643826 975.3333333333334 58.5 Z" stroke-opacity="0.39215686274509803" stroke-linecap="round" stroke-linejoin="round" stroke-miterlimit="10"/><path fill="rgb(0,153,204)" stroke="none" paint-order="stroke fill markers" d=" M 972.3333333333334 58.5 C 972.3333333333334 61.537566124069365 969.8708994574027 64 966.8333333333334 64 C 963.795767209264 64 961.3333333333334 61.537566124069365 961.3333333333334 58.5 C 961.3333333333334 55.462433875930635 963.795767209264 53 966.8333333333334 53 C 969.8708994574027 53 972.3333333333334 55.462433875930635 972.3333333333334 58.5 Z" fill-opacity="1"/><path fill="none" stroke="rgb(0,0,0)" paint-order="fill stroke markers" d=" M 972.3333333333334 58.5 C 972.3333333333334 61.537566124069365 969.8708994574027 64 966.8333333333334 64 C 963.795767209264 64 961.3333333333334 61.537566124069365 961.3333333333334 58.5 C 961.3333333333334 55.462433875930635 963.795767209264 53 966.8333333333334 53 C 969.8708994574027 53 972.3333333333334 55.462433875930635 972.3333333333334 58.5 Z" stroke-opacity="1" stroke-linecap="round" stroke-linejoin="round" stroke-miterlimit="10"/><g transform="scale(19,19)"><g transform="translate(1.263157894736842,15.641016) scale(2,2)"><g transform="translate(0.0629219374673684,-0.676508)"><path fill="rgb(255,51,102)" stroke="none" paint-order="stroke fill markers" d=" M 0.29 -0.352 L 0.29 -0.352 Q 0.39 -0.332 0.434 -0.254 Q 0.457 -0.215 0.457 -0.171 Q 0.457 -0.08600000000000001 0.387 -0.028 Q 0.326 0.022 0.244 0.022 Q 0.145 0.022 0.085 -0.037 Q 0.042 -0.079 0.042 -0.135 Q 0.042 -0.182 0.084 -0.191 Q 0.091 -0.193 0.098 -0.193 Q 0.136 -0.193 0.149 -0.161 Q 0.153 -0.148 0.154 -0.137 Q 0.154 -0.097 0.11800000000000001 -0.085 Q 0.10400000000000001 -0.08 0.088 -0.082 Q 0.125 -0.02 0.216 -0.008 Q 0.229 -0.006 0.241 -0.006 Q 0.305 -0.006 0.335 -0.069 Q 0.354 -0.109 0.354 -0.171 Q 0.354 -0.304 0.274 -0.331 Q 0.256 -0.337 0.23500000000000001 -0.337 L 0.191 -0.337 Q 0.169 -0.337 0.167 -0.34800000000000003 Q 0.167 -0.358 0.182 -0.36 Q 0.197 -0.36 0.221 -0.363 Q 0.272 -0.365 0.301 -0.402 L 0.301 -0.403 L 0.302 -0.404 L 0.303 -0.405 L 0.304 -0.405 L 0.31 -0.41500000000000004 Q 0.338 -0.462 0.338 -0.529 Q 0.338 -0.622 0.266 -0.638 Q 0.254 -0.641 0.242 -0.641 Q 0.17200000000000001 -0.641 0.128 -0.601 Q 0.117 -0.591 0.109 -0.579 Q 0.171 -0.579 0.171 -0.529 Q 0.171 -0.493 0.14 -0.481 Q 0.131 -0.47800000000000004 0.12 -0.47800000000000004 Q 0.081 -0.47800000000000004 0.07100000000000001 -0.513 L 0.07100000000000001 -0.513 L 0.07100000000000001 -0.514 Q 0.069 -0.522 0.069 -0.53 Q 0.069 -0.597 0.135 -0.637 Q 0.183 -0.666 0.246 -0.666 Q 0.337 -0.666 0.393 -0.612 L 0.395 -0.61 Q 0.43 -0.5740000000000001 0.43 -0.528 Q 0.43 -0.445 0.359 -0.389 Q 0.328 -0.365 0.29 -0.352 Z" fill-opacity="1"/></g><rect fill="rgb(255,51,102)" stroke="none" x="0.0629219374673684" y="-0.2699995" width="0.5" height="0.039999" fill-opacity="1"/><g transform="translate(0.0629219374673684,0.685951)"><path fill="rgb(255,51,102)" stroke="none" paint-order="stroke fill markers" d=" M 0.028 -0.165 L 0.028 -0.196 L 0.335 -0.665 Q 0.343 -0.677 0.355 -0.677 Q 0.369 -0.677 0.371 -0.666 L 0.371 -0.651 L 0.371 -0.196 L 0.47100000000000003 -0.196 L 0.47100000000000003 -0.165 L 0.371 -0.165 L 0.371 -0.078 Q 0.371 -0.047 0.383 -0.04 Q 0.397 -0.031 0.447 -0.031 L 0.468 -0.031 L 0.468 0 Q 0.427 -0.003 0.332 -0.003 Q 0.23800000000000002 -0.003 0.197 0 L 0.197 -0.031 L 0.218 -0.031 Q 0.28 -0.031 0.29 -0.048 Q 0.294 -0.055 0.294 -0.078 L 0.294 -0.165 L 0.028 -0.165 M 0.3 -0.196 L 0.3 -0.5690000000000001 L 0.056 -0.196 L 0.3 -0.196 Z" fill-opacity="1"/></g></g></g><g transform="scale(19,19)"><g transform="translate(1.2105263157894737,21.377858105263158) scale(2,2)"><g transform="translate(0.0629219374673684,-0.676508)"><path fill="rgb(0,153,204)" stroke="none" paint-order="stroke fill markers" d=" M 0.449 -0.17400000000000002 L 0.449 -0.17400000000000002 L 0.421 0 L 0.05 0 Q 0.05 -0.025 0.056 -0.032 L 0.061 -0.037 L 0.253 -0.251 Q 0.358 -0.369 0.358 -0.47200000000000003 Q 0.358 -0.561 0.304 -0.607 L 0.303 -0.608 L 0.302 -0.608 Q 0.27 -0.635 0.224 -0.635 Q 0.152 -0.635 0.109 -0.5730000000000001 Q 0.097 -0.555 0.089 -0.533 Q 0.092 -0.534 0.10200000000000001 -0.534 Q 0.14200000000000002 -0.534 0.153 -0.498 L 0.153 -0.497 Q 0.155 -0.49 0.155 -0.482 Q 0.155 -0.442 0.117 -0.431 Q 0.109 -0.429 0.10300000000000001 -0.429 Q 0.066 -0.429 0.054 -0.46 Q 0.05 -0.47100000000000003 0.05 -0.485 Q 0.05 -0.562 0.109 -0.617 Q 0.162 -0.666 0.23700000000000002 -0.666 Q 0.34700000000000003 -0.666 0.40800000000000003 -0.592 Q 0.443 -0.549 0.448 -0.49 Q 0.449 -0.481 0.449 -0.47200000000000003 Q 0.449 -0.399 0.394 -0.333 Q 0.365 -0.299 0.304 -0.243 L 0.243 -0.189 L 0.233 -0.18 L 0.127 -0.077 L 0.307 -0.077 Q 0.395 -0.077 0.402 -0.085 Q 0.41200000000000003 -0.099 0.424 -0.17400000000000002 L 0.449 -0.17400000000000002 Z" fill-opacity="1"/></g><rect fill="rgb(0,153,204)" stroke="none" x="0.0629219374673684" y="-0.2699995" width="0.5" height="0.039999" fill-opacity="1"/><g transform="translate(0.0629219374673684,0.685951)"><path fill="rgb(0,153,204)" stroke="none" paint-order="stroke fill markers" d=" M 0.29 -0.352 L 0.29 -0.352 Q 0.39 -0.332 0.434 -0.254 Q 0.457 -0.215 0.457 -0.171 Q 0.457 -0.08600000000000001 0.387 -0.028 Q 0.326 0.022 0.244 0.022 Q 0.145 0.022 0.085 -0.037 Q 0.042 -0.079 0.042 -0.135 Q 0.042 -0.182 0.084 -0.191 Q 0.091 -0.193 0.098 -0.193 Q 0.136 -0.193 0.149 -0.161 Q 0.153 -0.148 0.154 -0.137 Q 0.154 -0.097 0.11800000000000001 -0.085 Q 0.10400000000000001 -0.08 0.088 -0.082 Q 0.125 -0.02 0.216 -0.008 Q 0.229 -0.006 0.241 -0.006 Q 0.305 -0.006 0.335 -0.069 Q 0.354 -0.109 0.354 -0.171 Q 0.354 -0.304 0.274 -0.331 Q 0.256 -0.337 0.23500000000000001 -0.337 L 0.191 -0.337 Q 0.169 -0.337 0.167 -0.34800000000000003 Q 0.167 -0.358 0.182 -0.36 Q 0.197 -0.36 0.221 -0.363 Q 0.272 -0.365 0.301 -0.402 L 0.301 -0.403 L 0.302 -0.404 L 0.303 -0.405 L 0.304 -0.405 L 0.31 -0.41500000000000004 Q 0.338 -0.462 0.338 -0.529 Q 0.338 -0.622 0.266 -0.638 Q 0.254 -0.641 0.242 -0.641 Q 0.17200000000000001 -0.641 0.128 -0.601 Q 0.117 -0.591 0.109 -0.579 Q 0.171 -0.579 0.171 -0.529 Q 0.171 -0.493 0.14 -0.481 Q 0.131 -0.47800000000000004 0.12 -0.47800000000000004 Q 0.081 -0.47800000000000004 0.07100000000000001 -0.513 L 0.07100000000000001 -0.513 L 0.07100000000000001 -0.514 Q 0.069 -0.522 0.069 -0.53 Q 0.069 -0.597 0.135 -0.637 Q 0.183 -0.666 0.246 -0.666 Q 0.337 -0.666 0.393 -0.612 L 0.395 -0.61 Q 0.43 -0.5740000000000001 0.43 -0.528 Q 0.43 -0.445 0.359 -0.389 Q 0.328 -0.365 0.29 -0.352 Z" fill-opacity="1"/></g></g></g><path fill="none" stroke="rgb(0,0,0)" paint-order="fill stroke markers" d=" M 91.01330741499486 237.74857093374044 L 605.1780009892284 237.74857093374044" stroke-opacity="1" stroke-linecap="round" stroke-linejoin="round" stroke-miterlimit="10" stroke-width="1.5"/><path fill="none" stroke="rgb(0,0,0)" paint-order="fill stroke markers" d=" M 91.01330741499486 443.41444836343635 L 605.1780009892284 443.41444836343635" stroke-opacity="1" stroke-linecap="round" stroke-linejoin="round" stroke-miterlimit="10" stroke-width="1.5"/><path fill="none" stroke="rgb(0,0,0)" paint-order="fill stroke markers" d=" M 810.8438784189218 237.74857093374044 L 1325.0085719931553 237.74857093374044" stroke-opacity="1" stroke-linecap="round" stroke-linejoin="round" stroke-miterlimit="10" stroke-width="1.5"/><path fill="none" stroke="rgb(0,0,0)" paint-order="fill stroke markers" d=" M 810.8438784189218 443.41444836343635 L 1325.0085719931553 443.41444836343635" stroke-opacity="1" stroke-linecap="round" stroke-linejoin="round" stroke-miterlimit="10" stroke-width="1.5"/><path fill="none" stroke="rgb(0,0,0)" paint-order="fill stroke markers" d=" M 810.8438784189218 340.5815096485884 L 810.8438784189218 237.74857093374044" stroke-opacity="1" stroke-linecap="round" stroke-linejoin="round" stroke-miterlimit="10" stroke-width="1.5"/><path fill="none" stroke="rgb(0,0,0)" paint-order="fill stroke markers" d=" M 853.6909362167746 340.5815096485884 L 853.6909362167746 237.74857093374044" stroke-opacity="1" stroke-linecap="round" stroke-linejoin="round" stroke-miterlimit="10" stroke-width="1.5"/><path fill="none" stroke="rgb(0,0,0)" paint-order="fill stroke markers" d=" M 896.5379940146273 340.5815096485884 L 896.5379940146273 237.74857093374044" stroke-opacity="1" stroke-linecap="round" stroke-linejoin="round" stroke-miterlimit="10" stroke-width="1.5"/><path fill="none" stroke="rgb(0,0,0)" paint-order="fill stroke markers" d=" M 939.3850518124802 340.5815096485884 L 939.3850518124802 237.74857093374044" stroke-opacity="1" stroke-linecap="round" stroke-linejoin="round" stroke-miterlimit="10" stroke-width="1.5"/><path fill="none" stroke="rgb(0,0,0)" paint-order="fill stroke markers" d=" M 982.2321096103329 340.5815096485884 L 982.2321096103329 237.74857093374044" stroke-opacity="1" stroke-linecap="round" stroke-linejoin="round" stroke-miterlimit="10" stroke-width="1.5"/><path fill="none" stroke="rgb(0,0,0)" paint-order="fill stroke markers" d=" M 1025.0791674081859 340.5815096485884 L 1025.0791674081859 237.74857093374044" stroke-opacity="1" stroke-linecap="round" stroke-linejoin="round" stroke-miterlimit="10" stroke-width="1.5"/><path fill="none" stroke="rgb(0,0,0)" paint-order="fill stroke markers" d=" M 1067.9262252060385 340.5815096485884 L 1067.9262252060385 237.74857093374044" stroke-opacity="1" stroke-linecap="round" stroke-linejoin="round" stroke-miterlimit="10" stroke-width="1.5"/><path fill="none" stroke="rgb(0,0,0)" paint-order="fill stroke markers" d=" M 1110.7732830038915 340.5815096485884 L 1110.7732830038915 237.74857093374044" stroke-opacity="1" stroke-linecap="round" stroke-linejoin="round" stroke-miterlimit="10" stroke-width="1.5"/><path fill="none" stroke="rgb(0,0,0)" paint-order="fill stroke markers" d=" M 1153.6203408017443 340.5815096485884 L 1153.6203408017443 237.74857093374044" stroke-opacity="1" stroke-linecap="round" stroke-linejoin="round" stroke-miterlimit="10" stroke-width="1.5"/><path fill="none" stroke="rgb(0,0,0)" paint-order="fill stroke markers" d=" M 1196.467398599597 340.5815096485884 L 1196.467398599597 237.74857093374044" stroke-opacity="1" stroke-linecap="round" stroke-linejoin="round" stroke-miterlimit="10" stroke-width="1.5"/><path fill="none" stroke="rgb(0,0,0)" paint-order="fill stroke markers" d=" M 1239.31445639745 340.5815096485884 L 1239.31445639745 237.74857093374044" stroke-opacity="1" stroke-linecap="round" stroke-linejoin="round" stroke-miterlimit="10" stroke-width="1.5"/><path fill="none" stroke="rgb(0,0,0)" paint-order="fill stroke markers" d=" M 1282.1615141953025 340.5815096485884 L 1282.1615141953025 237.74857093374044" stroke-opacity="1" stroke-linecap="round" stroke-linejoin="round" stroke-miterlimit="10" stroke-width="1.5"/><path fill="none" stroke="rgb(0,0,0)" paint-order="fill stroke markers" d=" M 1325.0085719931553 340.5815096485884 L 1325.0085719931553 237.74857093374044" stroke-opacity="1" stroke-linecap="round" stroke-linejoin="round" stroke-miterlimit="10" stroke-width="1.5"/><path fill="none" stroke="rgb(0,0,0)" paint-order="fill stroke markers" d=" M 810.8438784189218 340.5815096485884 L 810.8438784189218 443.41444836343635" stroke-opacity="1" stroke-linecap="round" stroke-linejoin="round" stroke-miterlimit="10" stroke-width="1.5"/><path fill="none" stroke="rgb(0,0,0)" paint-order="fill stroke markers" d=" M 853.6909362167746 340.5815096485884 L 853.6909362167746 443.41444836343635" stroke-opacity="1" stroke-linecap="round" stroke-linejoin="round" stroke-miterlimit="10" stroke-width="1.5"/><path fill="none" stroke="rgb(0,0,0)" paint-order="fill stroke markers" d=" M 896.5379940146273 340.5815096485884 L 896.5379940146273 443.41444836343635" stroke-opacity="1" stroke-linecap="round" stroke-linejoin="round" stroke-miterlimit="10" stroke-width="1.5"/><path fill="none" stroke="rgb(0,0,0)" paint-order="fill stroke markers" d=" M 939.3850518124802 340.5815096485884 L 939.3850518124802 443.41444836343635" stroke-opacity="1" stroke-linecap="round" stroke-linejoin="round" stroke-miterlimit="10" stroke-width="1.5"/><path fill="none" stroke="rgb(0,0,0)" paint-order="fill stroke markers" d=" M 982.2321096103329 340.5815096485884 L 982.2321096103329 443.41444836343635" stroke-opacity="1" stroke-linecap="round" stroke-linejoin="round" stroke-miterlimit="10" stroke-width="1.5"/><path fill="none" stroke="rgb(0,0,0)" paint-order="fill stroke markers" d=" M 1025.0791674081859 340.5815096485884 L 1025.0791674081859 443.41444836343635" stroke-opacity="1" stroke-linecap="round" stroke-linejoin="round" stroke-miterlimit="10" stroke-width="1.5"/><path fill="none" stroke="rgb(0,0,0)" paint-order="fill stroke markers" d=" M 1067.9262252060385 340.5815096485884 L 1067.9262252060385 443.41444836343635" stroke-opacity="1" stroke-linecap="round" stroke-linejoin="round" stroke-miterlimit="10" stroke-width="1.5"/><path fill="none" stroke="rgb(0,0,0)" paint-order="fill stroke markers" d=" M 1110.7732830038915 340.5815096485884 L 1110.7732830038915 443.41444836343635" stroke-opacity="1" stroke-linecap="round" stroke-linejoin="round" stroke-miterlimit="10" stroke-width="1.5"/><path fill="none" stroke="rgb(0,0,0)" paint-order="fill stroke markers" d=" M 1153.6203408017443 340.5815096485884 L 1153.6203408017443 443.41444836343635" stroke-opacity="1" stroke-linecap="round" stroke-linejoin="round" stroke-miterlimit="10" stroke-width="1.5"/><path fill="none" stroke="rgb(0,0,0)" paint-order="fill stroke markers" d=" M 1196.467398599597 340.5815096485884 L 1196.467398599597 443.41444836343635" stroke-opacity="1" stroke-linecap="round" stroke-linejoin="round" stroke-miterlimit="10" stroke-width="1.5"/><path fill="none" stroke="rgb(0,0,0)" paint-order="fill stroke markers" d=" M 1239.31445639745 340.5815096485884 L 1239.31445639745 443.41444836343635" stroke-opacity="1" stroke-linecap="round" stroke-linejoin="round" stroke-miterlimit="10" stroke-width="1.5"/><path fill="none" stroke="rgb(0,0,0)" paint-order="fill stroke markers" d=" M 1282.1615141953025 340.5815096485884 L 1282.1615141953025 443.41444836343635" stroke-opacity="1" stroke-linecap="round" stroke-linejoin="round" stroke-miterlimit="10" stroke-width="1.5"/><path fill="none" stroke="rgb(0,0,0)" paint-order="fill stroke markers" d=" M 1325.0085719931553 340.5815096485884 L 1325.0085719931553 443.41444836343635" stroke-opacity="1" stroke-linecap="round" stroke-linejoin="round" stroke-miterlimit="10" stroke-width="1.5"/><path fill="none" stroke="rgb(0,0,0)" paint-order="fill stroke markers" d=" M 91.01330741499486 340.5815096485884 L 91.01330741499486 237.74857093374044" stroke-opacity="1" stroke-linecap="round" stroke-linejoin="round" stroke-miterlimit="10" stroke-width="1.5"/><path fill="none" stroke="rgb(0,0,0)" paint-order="fill stroke markers" d=" M 219.55448080855325 340.5815096485884 L 219.55448080855325 237.74857093374044" stroke-opacity="1" stroke-linecap="round" stroke-linejoin="round" stroke-miterlimit="10" stroke-width="1.5"/><path fill="none" stroke="rgb(0,0,0)" paint-order="fill stroke markers" d=" M 348.09565420211163 340.5815096485884 L 348.09565420211163 237.74857093374044" stroke-opacity="1" stroke-linecap="round" stroke-linejoin="round" stroke-miterlimit="10" stroke-width="1.5"/><path fill="none" stroke="rgb(0,0,0)" paint-order="fill stroke markers" d=" M 476.63682759567 340.5815096485884 L 476.63682759567 237.74857093374044" stroke-opacity="1" stroke-linecap="round" stroke-linejoin="round" stroke-miterlimit="10" stroke-width="1.5"/><path fill="none" stroke="rgb(0,0,0)" paint-order="fill stroke markers" d=" M 605.1780009892284 340.5815096485884 L 605.1780009892284 237.74857093374044" stroke-opacity="1" stroke-linecap="round" stroke-linejoin="round" stroke-miterlimit="10" stroke-width="1.5"/><path fill="none" stroke="rgb(0,0,0)" paint-order="fill stroke markers" d=" M 91.01330741499486 443.41444836343635 L 91.01330741499486 340.5815096485884" stroke-opacity="1" stroke-linecap="round" stroke-linejoin="round" stroke-miterlimit="10" stroke-width="1.5"/><path fill="none" stroke="rgb(0,0,0)" paint-order="fill stroke markers" d=" M 262.40153860640606 443.41444836343635 L 262.40153860640606 340.5815096485884" stroke-opacity="1" stroke-linecap="round" stroke-linejoin="round" stroke-miterlimit="10" stroke-width="1.5"/><path fill="none" stroke="rgb(0,0,0)" paint-order="fill stroke markers" d=" M 433.78976979781726 443.41444836343635 L 433.78976979781726 340.5815096485884" stroke-opacity="1" stroke-linecap="round" stroke-linejoin="round" stroke-miterlimit="10" stroke-width="1.5"/><path fill="none" stroke="rgb(0,0,0)" paint-order="fill stroke markers" d=" M 605.1780009892284 443.41444836343635 L 605.1780009892284 340.5815096485884" stroke-opacity="1" stroke-linecap="round" stroke-linejoin="round" stroke-miterlimit="10" stroke-width="1.5"/><path fill="none" stroke="rgb(0,0,0)" paint-order="fill stroke markers" d=" M 91.01330741499486 340.5815096485884 L 605.1780009892284 340.5815096485884" stroke-opacity="1" stroke-linecap="round" stroke-linejoin="round" stroke-miterlimit="10" stroke-width="4"/><path fill="none" stroke="rgb(0,0,0)" paint-order="fill stroke markers" d=" M 91.01330741499486 340.5815096485884 L 433.78976979781726 340.5815096485884" stroke-opacity="1" stroke-linecap="round" stroke-linejoin="round" stroke-miterlimit="10" stroke-width="4"/><path fill="none" stroke="rgb(0,0,0)" paint-order="fill stroke markers" d=" M 433.78976979781726 340.5815096485884 L 433.78976979781726 443.41444836343635" stroke-opacity="1" stroke-linecap="round" stroke-linejoin="round" stroke-miterlimit="10" stroke-width="4"/><path fill="none" stroke="rgb(0,0,0)" paint-order="fill stroke markers" d=" M 433.78976979781726 443.41444836343635 L 91.01330741499486 443.41444836343635" stroke-opacity="1" stroke-linecap="round" stroke-linejoin="round" stroke-miterlimit="10" stroke-width="4"/><path fill="none" stroke="rgb(0,0,0)" paint-order="fill stroke markers" d=" M 91.01330741499486 443.41444836343635 L 91.01330741499486 340.5815096485884" stroke-opacity="1" stroke-linecap="round" stroke-linejoin="round" stroke-miterlimit="10" stroke-width="4"/><path fill="none" stroke="rgb(0,0,0)" paint-order="fill stroke markers" d=" M 810.8438784189218 340.5815096485884 L 1325.0085719931553 340.5815096485884" stroke-opacity="1" stroke-linecap="round" stroke-linejoin="round" stroke-miterlimit="10" stroke-width="4"/><path fill="none" stroke="rgb(0,0,0)" paint-order="fill stroke markers" d=" M 810.8438784189218 340.5815096485884 L 1196.467398599597 340.5815096485884" stroke-opacity="1" stroke-linecap="round" stroke-linejoin="round" stroke-miterlimit="10" stroke-width="4"/><path fill="none" stroke="rgb(0,0,0)" paint-order="fill stroke markers" d=" M 1196.467398599597 340.5815096485884 L 1196.467398599597 237.74857093374044" stroke-opacity="1" stroke-linecap="round" stroke-linejoin="round" stroke-miterlimit="10" stroke-width="4"/><path fill="none" stroke="rgb(0,0,0)" paint-order="fill stroke markers" d=" M 1196.467398599597 237.74857093374044 L 810.8438784189218 237.74857093374044" stroke-opacity="1" stroke-linecap="round" stroke-linejoin="round" stroke-miterlimit="10" stroke-width="4"/><path fill="none" stroke="rgb(0,0,0)" paint-order="fill stroke markers" d=" M 810.8438784189218 237.74857093374044 L 810.8438784189218 340.5815096485884" stroke-opacity="1" stroke-linecap="round" stroke-linejoin="round" stroke-miterlimit="10" stroke-width="4"/><path fill="none" stroke="rgb(0,0,0)" paint-order="fill stroke markers" d=" M 810.8438784189218 340.5815096485884 L 1153.6203408017443 340.5815096485884" stroke-opacity="1" stroke-linecap="round" stroke-linejoin="round" stroke-miterlimit="10" stroke-width="4"/><path fill="none" stroke="rgb(0,0,0)" paint-order="fill stroke markers" d=" M 1153.6203408017443 340.5815096485884 L 1153.6203408017443 443.41444836343635" stroke-opacity="1" stroke-linecap="round" stroke-linejoin="round" stroke-miterlimit="10" stroke-width="4"/><path fill="none" stroke="rgb(0,0,0)" paint-order="fill stroke markers" d=" M 1153.6203408017443 443.41444836343635 L 810.8438784189218 443.41444836343635" stroke-opacity="1" stroke-linecap="round" stroke-linejoin="round" stroke-miterlimit="10" stroke-width="4"/><path fill="none" stroke="rgb(0,0,0)" paint-order="fill stroke markers" d=" M 810.8438784189218 443.41444836343635 L 810.8438784189218 340.5815096485884" stroke-opacity="1" stroke-linecap="round" stroke-linejoin="round" stroke-miterlimit="10" stroke-width="4"/><g transform="scale(19,19)"><g transform="translate(30.789473684210527,4.798910736842105) scale(2,2)"><g transform="translate(0.0629219374673684,-0.676508)"><path fill="rgb(255,51,102)" stroke="none" paint-order="stroke fill markers" d=" M 0.29 -0.352 L 0.29 -0.352 Q 0.39 -0.332 0.434 -0.254 Q 0.457 -0.215 0.457 -0.171 Q 0.457 -0.08600000000000001 0.387 -0.028 Q 0.326 0.022 0.244 0.022 Q 0.145 0.022 0.085 -0.037 Q 0.042 -0.079 0.042 -0.135 Q 0.042 -0.182 0.084 -0.191 Q 0.091 -0.193 0.098 -0.193 Q 0.136 -0.193 0.149 -0.161 Q 0.153 -0.148 0.154 -0.137 Q 0.154 -0.097 0.11800000000000001 -0.085 Q 0.10400000000000001 -0.08 0.088 -0.082 Q 0.125 -0.02 0.216 -0.008 Q 0.229 -0.006 0.241 -0.006 Q 0.305 -0.006 0.335 -0.069 Q 0.354 -0.109 0.354 -0.171 Q 0.354 -0.304 0.274 -0.331 Q 0.256 -0.337 0.23500000000000001 -0.337 L 0.191 -0.337 Q 0.169 -0.337 0.167 -0.34800000000000003 Q 0.167 -0.358 0.182 -0.36 Q 0.197 -0.36 0.221 -0.363 Q 0.272 -0.365 0.301 -0.402 L 0.301 -0.403 L 0.302 -0.404 L 0.303 -0.405 L 0.304 -0.405 L 0.31 -0.41500000000000004 Q 0.338 -0.462 0.338 -0.529 Q 0.338 -0.622 0.266 -0.638 Q 0.254 -0.641 0.242 -0.641 Q 0.17200000000000001 -0.641 0.128 -0.601 Q 0.117 -0.591 0.109 -0.579 Q 0.171 -0.579 0.171 -0.529 Q 0.171 -0.493 0.14 -0.481 Q 0.131 -0.47800000000000004 0.12 -0.47800000000000004 Q 0.081 -0.47800000000000004 0.07100000000000001 -0.513 L 0.07100000000000001 -0.513 L 0.07100000000000001 -0.514 Q 0.069 -0.522 0.069 -0.53 Q 0.069 -0.597 0.135 -0.637 Q 0.183 -0.666 0.246 -0.666 Q 0.337 -0.666 0.393 -0.612 L 0.395 -0.61 Q 0.43 -0.5740000000000001 0.43 -0.528 Q 0.43 -0.445 0.359 -0.389 Q 0.328 -0.365 0.29 -0.352 Z" fill-opacity="1"/></g><rect fill="rgb(255,51,102)" stroke="none" x="0.0629219374673684" y="-0.2699995" width="0.5" height="0.039999" fill-opacity="1"/><g transform="translate(0.0629219374673684,0.685951)"><path fill="rgb(255,51,102)" stroke="none" paint-order="stroke fill markers" d=" M 0.028 -0.165 L 0.028 -0.196 L 0.335 -0.665 Q 0.343 -0.677 0.355 -0.677 Q 0.369 -0.677 0.371 -0.666 L 0.371 -0.651 L 0.371 -0.196 L 0.47100000000000003 -0.196 L 0.47100000000000003 -0.165 L 0.371 -0.165 L 0.371 -0.078 Q 0.371 -0.047 0.383 -0.04 Q 0.397 -0.031 0.447 -0.031 L 0.468 -0.031 L 0.468 0 Q 0.427 -0.003 0.332 -0.003 Q 0.23800000000000002 -0.003 0.197 0 L 0.197 -0.031 L 0.218 -0.031 Q 0.28 -0.031 0.29 -0.048 Q 0.294 -0.055 0.294 -0.078 L 0.294 -0.165 L 0.028 -0.165 M 0.3 -0.196 L 0.3 -0.5690000000000001 L 0.056 -0.196 L 0.3 -0.196 Z" fill-opacity="1"/></g></g></g><g transform="scale(19,19)"><g transform="translate(40.73684210526316,4.798910736842105) scale(2,2)"><g transform="translate(0.0629219374673684,-0.676508)"><path fill="rgb(0,153,204)" stroke="none" paint-order="stroke fill markers" d=" M 0.449 -0.17400000000000002 L 0.449 -0.17400000000000002 L 0.421 0 L 0.05 0 Q 0.05 -0.025 0.056 -0.032 L 0.061 -0.037 L 0.253 -0.251 Q 0.358 -0.369 0.358 -0.47200000000000003 Q 0.358 -0.561 0.304 -0.607 L 0.303 -0.608 L 0.302 -0.608 Q 0.27 -0.635 0.224 -0.635 Q 0.152 -0.635 0.109 -0.5730000000000001 Q 0.097 -0.555 0.089 -0.533 Q 0.092 -0.534 0.10200000000000001 -0.534 Q 0.14200000000000002 -0.534 0.153 -0.498 L 0.153 -0.497 Q 0.155 -0.49 0.155 -0.482 Q 0.155 -0.442 0.117 -0.431 Q 0.109 -0.429 0.10300000000000001 -0.429 Q 0.066 -0.429 0.054 -0.46 Q 0.05 -0.47100000000000003 0.05 -0.485 Q 0.05 -0.562 0.109 -0.617 Q 0.162 -0.666 0.23700000000000002 -0.666 Q 0.34700000000000003 -0.666 0.40800000000000003 -0.592 Q 0.443 -0.549 0.448 -0.49 Q 0.449 -0.481 0.449 -0.47200000000000003 Q 0.449 -0.399 0.394 -0.333 Q 0.365 -0.299 0.304 -0.243 L 0.243 -0.189 L 0.233 -0.18 L 0.127 -0.077 L 0.307 -0.077 Q 0.395 -0.077 0.402 -0.085 Q 0.41200000000000003 -0.099 0.424 -0.17400000000000002 L 0.449 -0.17400000000000002 Z" fill-opacity="1"/></g><rect fill="rgb(0,153,204)" stroke="none" x="0.0629219374673684" y="-0.2699995" width="0.5" height="0.039999" fill-opacity="1"/><g transform="translate(0.0629219374673684,0.685951)"><path fill="rgb(0,153,204)" stroke="none" paint-order="stroke fill markers" d=" M 0.29 -0.352 L 0.29 -0.352 Q 0.39 -0.332 0.434 -0.254 Q 0.457 -0.215 0.457 -0.171 Q 0.457 -0.08600000000000001 0.387 -0.028 Q 0.326 0.022 0.244 0.022 Q 0.145 0.022 0.085 -0.037 Q 0.042 -0.079 0.042 -0.135 Q 0.042 -0.182 0.084 -0.191 Q 0.091 -0.193 0.098 -0.193 Q 0.136 -0.193 0.149 -0.161 Q 0.153 -0.148 0.154 -0.137 Q 0.154 -0.097 0.11800000000000001 -0.085 Q 0.10400000000000001 -0.08 0.088 -0.082 Q 0.125 -0.02 0.216 -0.008 Q 0.229 -0.006 0.241 -0.006 Q 0.305 -0.006 0.335 -0.069 Q 0.354 -0.109 0.354 -0.171 Q 0.354 -0.304 0.274 -0.331 Q 0.256 -0.337 0.23500000000000001 -0.337 L 0.191 -0.337 Q 0.169 -0.337 0.167 -0.34800000000000003 Q 0.167 -0.358 0.182 -0.36 Q 0.197 -0.36 0.221 -0.363 Q 0.272 -0.365 0.301 -0.402 L 0.301 -0.403 L 0.302 -0.404 L 0.303 -0.405 L 0.304 -0.405 L 0.31 -0.41500000000000004 Q 0.338 -0.462 0.338 -0.529 Q 0.338 -0.622 0.266 -0.638 Q 0.254 -0.641 0.242 -0.641 Q 0.17200000000000001 -0.641 0.128 -0.601 Q 0.117 -0.591 0.109 -0.579 Q 0.171 -0.579 0.171 -0.529 Q 0.171 -0.493 0.14 -0.481 Q 0.131 -0.47800000000000004 0.12 -0.47800000000000004 Q 0.081 -0.47800000000000004 0.07100000000000001 -0.513 L 0.07100000000000001 -0.513 L 0.07100000000000001 -0.514 Q 0.069 -0.522 0.069 -0.53 Q 0.069 -0.597 0.135 -0.637 Q 0.183 -0.666 0.246 -0.666 Q 0.337 -0.666 0.393 -0.612 L 0.395 -0.61 Q 0.43 -0.5740000000000001 0.43 -0.528 Q 0.43 -0.445 0.359 -0.389 Q 0.328 -0.365 0.29 -0.352 Z" fill-opacity="1"/></g></g></g><g transform="scale(19,19)"><g transform="translate(39,15.904173894736843) scale(2,2)"><g transform="translate(0.3129219374673684,-0.676508)"><path fill="rgb(255,51,102)" stroke="none" paint-order="stroke fill markers" d=" M 0.367 -0.318 Q 0.327 -0.218 0.242 -0.218 Q 0.149 -0.218 0.09 -0.294 L 0.09 -0.295 Q 0.042 -0.357 0.042 -0.441 Q 0.042 -0.525 0.091 -0.586 L 0.106 -0.603 Q 0.166 -0.666 0.253 -0.666 Q 0.353 -0.666 0.40800000000000003 -0.5690000000000001 Q 0.457 -0.482 0.457 -0.329 Q 0.457 -0.158 0.365 -0.055 Q 0.296 0.022 0.20600000000000002 0.022 Q 0.108 0.022 0.077 -0.039 Q 0.067 -0.06 0.067 -0.08600000000000001 Q 0.067 -0.126 0.10400000000000001 -0.133 Q 0.109 -0.134 0.113 -0.134 Q 0.145 -0.134 0.156 -0.106 Q 0.159 -0.098 0.159 -0.088 Q 0.159 -0.048 0.11900000000000001 -0.043000000000000003 Q 0.113 -0.042 0.107 -0.042 Q 0.136 -0.006 0.20500000000000002 -0.006 Q 0.276 -0.006 0.321 -0.077 Q 0.367 -0.15 0.367 -0.28600000000000003 L 0.367 -0.318 M 0.243 -0.241 Q 0.321 -0.241 0.352 -0.333 Q 0.365 -0.374 0.365 -0.421 Q 0.365 -0.519 0.34900000000000003 -0.562 Q 0.323 -0.632 0.266 -0.64 Q 0.259 -0.641 0.253 -0.641 Q 0.187 -0.641 0.153 -0.578 Q 0.132 -0.541 0.132 -0.452 L 0.132 -0.44 Q 0.132 -0.341 0.15 -0.304 Q 0.181 -0.241 0.243 -0.241 Z" fill-opacity="1"/></g><rect fill="rgb(255,51,102)" stroke="none" x="0.0629219374673684" y="-0.2699995" width="1" height="0.039999" fill-opacity="1"/><g transform="translate(0.0629219374673684,0.685951)"><path fill="rgb(255,51,102)" stroke="none" paint-order="stroke fill markers" d=" M 0.294 -0.64 L 0.294 -0.079 Q 0.294 -0.049 0.306 -0.041 Q 0.323 -0.031 0.387 -0.031 L 0.419 -0.031 L 0.419 0 Q 0.384 -0.003 0.257 -0.003 Q 0.13 -0.003 0.095 0 L 0.095 -0.031 L 0.127 -0.031 Q 0.20400000000000001 -0.031 0.215 -0.049 L 0.216 -0.05 Q 0.22 -0.058 0.22 -0.079 L 0.22 -0.597 Q 0.168 -0.5710000000000001 0.089 -0.5710000000000001 L 0.089 -0.602 Q 0.209 -0.602 0.271 -0.666 Q 0.29 -0.666 0.293 -0.659 L 0.293 -0.659 L 0.293 -0.658 Q 0.294 -0.655 0.294 -0.64 Z" fill-opacity="1"/></g><g transform="translate(0.5629219374673684,0.685951)"><path fill="rgb(255,51,102)" stroke="none" paint-order="stroke fill markers" d=" M 0.449 -0.17400000000000002 L 0.449 -0.17400000000000002 L 0.421 0 L 0.05 0 Q 0.05 -0.025 0.056 -0.032 L 0.061 -0.037 L 0.253 -0.251 Q 0.358 -0.369 0.358 -0.47200000000000003 Q 0.358 -0.561 0.304 -0.607 L 0.303 -0.608 L 0.302 -0.608 Q 0.27 -0.635 0.224 -0.635 Q 0.152 -0.635 0.109 -0.5730000000000001 Q 0.097 -0.555 0.089 -0.533 Q 0.092 -0.534 0.10200000000000001 -0.534 Q 0.14200000000000002 -0.534 0.153 -0.498 L 0.153 -0.497 Q 0.155 -0.49 0.155 -0.482 Q 0.155 -0.442 0.117 -0.431 Q 0.109 -0.429 0.10300000000000001 -0.429 Q 0.066 -0.429 0.054 -0.46 Q 0.05 -0.47100000000000003 0.05 -0.485 Q 0.05 -0.562 0.109 -0.617 Q 0.162 -0.666 0.23700000000000002 -0.666 Q 0.34700000000000003 -0.666 0.40800000000000003 -0.592 Q 0.443 -0.549 0.448 -0.49 Q 0.449 -0.481 0.449 -0.47200000000000003 Q 0.449 -0.399 0.394 -0.333 Q 0.365 -0.299 0.304 -0.243 L 0.243 -0.189 L 0.233 -0.18 L 0.127 -0.077 L 0.307 -0.077 Q 0.395 -0.077 0.402 -0.085 Q 0.41200000000000003 -0.099 0.424 -0.17400000000000002 L 0.449 -0.17400000000000002 Z" fill-opacity="1"/></g></g></g><g transform="scale(19,19)"><g transform="translate(39,21.219963368421052) scale(2,2)"><g transform="translate(0.3129219374673684,-0.676508)"><path fill="rgb(0,153,204)" stroke="none" paint-order="stroke fill markers" d=" M 0.163 -0.457 L 0.28700000000000003 -0.377 Q 0.386 -0.435 0.386 -0.517 Q 0.386 -0.583 0.326 -0.62 Q 0.291 -0.641 0.249 -0.641 Q 0.177 -0.641 0.136 -0.596 L 0.136 -0.596 L 0.135 -0.595 Q 0.113 -0.5690000000000001 0.113 -0.538 Q 0.113 -0.49 0.163 -0.457 M 0.309 -0.362 L 0.309 -0.362 Q 0.386 -0.314 0.403 -0.296 Q 0.406 -0.294 0.40800000000000003 -0.291 Q 0.457 -0.23700000000000002 0.457 -0.168 Q 0.457 -0.079 0.383 -0.023 Q 0.325 0.022 0.249 0.022 Q 0.154 0.022 0.092 -0.037 Q 0.042 -0.085 0.042 -0.151 Q 0.042 -0.263 0.186 -0.335 Q 0.124 -0.377 0.113 -0.389 Q 0.069 -0.438 0.069 -0.499 Q 0.069 -0.579 0.136 -0.629 Q 0.186 -0.666 0.25 -0.666 Q 0.337 -0.666 0.391 -0.611 Q 0.43 -0.5710000000000001 0.43 -0.517 Q 0.43 -0.424 0.309 -0.362 M 0.209 -0.32 L 0.209 -0.32 Q 0.097 -0.25 0.092 -0.151 Q 0.092 -0.078 0.155 -0.035 Q 0.197 -0.006 0.25 -0.006 Q 0.328 -0.006 0.375 -0.055 Q 0.40700000000000003 -0.089 0.40700000000000003 -0.132 Q 0.40700000000000003 -0.19 0.343 -0.23500000000000001 Q 0.341 -0.23600000000000002 0.332 -0.242 L 0.209 -0.32 Z" fill-opacity="1"/></g><rect fill="rgb(0,153,204)" stroke="none" x="0.0629219374673684" y="-0.2699995" width="1" height="0.039999" fill-opacity="1"/><g transform="translate(0.0629219374673684,0.685951)"><path fill="rgb(0,153,204)" stroke="none" paint-order="stroke fill markers" d=" M 0.294 -0.64 L 0.294 -0.079 Q 0.294 -0.049 0.306 -0.041 Q 0.323 -0.031 0.387 -0.031 L 0.419 -0.031 L 0.419 0 Q 0.384 -0.003 0.257 -0.003 Q 0.13 -0.003 0.095 0 L 0.095 -0.031 L 0.127 -0.031 Q 0.20400000000000001 -0.031 0.215 -0.049 L 0.216 -0.05 Q 0.22 -0.058 0.22 -0.079 L 0.22 -0.597 Q 0.168 -0.5710000000000001 0.089 -0.5710000000000001 L 0.089 -0.602 Q 0.209 -0.602 0.271 -0.666 Q 0.29 -0.666 0.293 -0.659 L 0.293 -0.659 L 0.293 -0.658 Q 0.294 -0.655 0.294 -0.64 Z" fill-opacity="1"/></g><g transform="translate(0.5629219374673684,0.685951)"><path fill="rgb(0,153,204)" stroke="none" paint-order="stroke fill markers" d=" M 0.449 -0.17400000000000002 L 0.449 -0.17400000000000002 L 0.421 0 L 0.05 0 Q 0.05 -0.025 0.056 -0.032 L 0.061 -0.037 L 0.253 -0.251 Q 0.358 -0.369 0.358 -0.47200000000000003 Q 0.358 -0.561 0.304 -0.607 L 0.303 -0.608 L 0.302 -0.608 Q 0.27 -0.635 0.224 -0.635 Q 0.152 -0.635 0.109 -0.5730000000000001 Q 0.097 -0.555 0.089 -0.533 Q 0.092 -0.534 0.10200000000000001 -0.534 Q 0.14200000000000002 -0.534 0.153 -0.498 L 0.153 -0.497 Q 0.155 -0.49 0.155 -0.482 Q 0.155 -0.442 0.117 -0.431 Q 0.109 -0.429 0.10300000000000001 -0.429 Q 0.066 -0.429 0.054 -0.46 Q 0.05 -0.47100000000000003 0.05 -0.485 Q 0.05 -0.562 0.109 -0.617 Q 0.162 -0.666 0.23700000000000002 -0.666 Q 0.34700000000000003 -0.666 0.40800000000000003 -0.592 Q 0.443 -0.549 0.448 -0.49 Q 0.449 -0.481 0.449 -0.47200000000000003 Q 0.449 -0.399 0.394 -0.333 Q 0.365 -0.299 0.304 -0.243 L 0.243 -0.189 L 0.233 -0.18 L 0.127 -0.077 L 0.307 -0.077 Q 0.395 -0.077 0.402 -0.085 Q 0.41200000000000003 -0.099 0.424 -0.17400000000000002 L 0.449 -0.17400000000000002 Z" fill-opacity="1"/></g></g></g><g transform="scale(19,19)"><g transform="translate(35.473684210526315,4.722263157894737) scale(3,3)"><g transform="translate(0,0)"><path fill="rgb(127,0,255)" stroke="none" paint-order="stroke fill markers" d=" M 0.675 -0.228 L 0.121 0.033 Q 0.108 0.04 0.10300000000000001 0.04 Q 0.08700000000000001 0.04 0.084 0.025 Q 0.083 0.022 0.083 0.02 Q 0.083 0.008 0.10200000000000001 -0.002 L 0.627 -0.25 L 0.10200000000000001 -0.498 Q 0.083 -0.508 0.083 -0.52 Q 0.083 -0.536 0.098 -0.539 Q 0.101 -0.54 0.10300000000000001 -0.54 Q 0.108 -0.54 0.121 -0.533 L 0.675 -0.272 Q 0.6940000000000001 -0.263 0.6940000000000001 -0.25 Q 0.6940000000000001 -0.23700000000000002 0.675 -0.228 Z" fill-opacity="1"/></g></g></g></g></g></svg>